<svg width="18" height="18" viewBox="0 0 28 28" fill="none" xmlns="http://www.w3.org/2000/svg">
<path d="M9.33659 8.16769H18.6699C20.8698 8.16769 21.9697 8.16769 22.6532 8.85112C23.3366 9.53453 23.3366 10.6345 23.3366 12.8344V17.501C23.3366 21.3508 23.3366 23.2757 22.1406 24.4717C20.9446 25.6677 19.0197 25.6677 15.1699 25.6677H12.8366C8.98679 25.6677 7.06188 25.6677 5.86591 24.4717C4.66992 23.2757 4.66992 21.3508 4.66992 17.501V12.8344C4.66992 10.6345 4.66992 9.53453 5.35334 8.85112C6.03675 8.16769 7.1367 8.16769 9.33659 8.16769Z" stroke="white" stroke-width="2.01029" stroke-linecap="round" stroke-linejoin="round"/>
<path d="M18.6673 11.0844C18.6673 6.57409 16.5779 2.33441 14.0007 2.33441C11.4233 2.33441 9.33398 6.57409 9.33398 11.0844" stroke="white" stroke-width="2.01029" stroke-linecap="round" stroke-linejoin="round"/>
</svg>
