<svg width="75" height="75" viewBox="0 0 75 75" fill="none" xmlns="http://www.w3.org/2000/svg">
<path d="M45.0595 32.6303C45.0595 36.9209 41.5811 40.3992 37.2905 40.3992C32.9998 40.3992 29.5215 36.9209 29.5215 32.6303C29.5215 28.3396 32.9998 24.8613 37.2905 24.8613C41.5811 24.8613 45.0595 28.3396 45.0595 32.6303Z" stroke="#141B34" stroke-width="3.04418" stroke-linecap="round" stroke-linejoin="round"/>
<path d="M49.7202 10.877C57.4252 10.877 62.7419 12.0709 65.6712 12.9787C67.3577 13.5014 68.3658 15.0998 68.3658 16.8654V47.1808C68.3658 50.6461 64.5493 53.2534 61.1443 52.6104C58.2229 52.0588 54.4148 51.6157 49.7202 51.6157C34.9563 51.6157 31.4152 57.227 9.77144 52.4541C7.68267 51.9935 6.21387 50.115 6.21387 47.976V16.8471C6.21387 13.8146 9.07531 11.6031 12.0499 12.1934C31.6859 16.0899 35.4902 10.877 49.7202 10.877Z" stroke="#141B34" stroke-width="3.04418" stroke-linecap="round" stroke-linejoin="round"/>
<path d="M6.21387 23.3102C12.2778 23.3102 17.727 18.3538 18.4236 13.2235M57.4907 12.4336C57.4907 18.772 62.9756 24.7676 68.3658 24.7676M68.3658 41.9557C62.4641 41.9557 56.7437 46.0273 56.2524 51.584M18.6458 52.8202C18.6458 45.9552 13.0805 40.3898 6.21539 40.3898" stroke="#141B34" stroke-width="3.04418" stroke-linecap="round" stroke-linejoin="round"/>
<path d="M59.0425 61.3224C56.4684 60.8985 53.3612 60.5986 49.7212 60.5986C36.376 60.5986 32.2003 65.7566 15.5361 62.7823" stroke="#141B34" stroke-width="3.04418" stroke-linecap="round" stroke-linejoin="round"/>
</svg>
