<svg width="75" height="75" viewBox="0 0 75 75" fill="none" xmlns="http://www.w3.org/2000/svg">
<path d="M6.21387 37.2934C6.21387 26.3003 6.21387 20.8038 9.48554 17.1341C10.0088 16.5472 10.5856 16.0043 11.2092 15.5118C15.1082 12.4326 20.9483 12.4326 32.6284 12.4326H41.9512C53.6314 12.4326 59.4715 12.4326 63.3703 15.5118C63.994 16.0043 64.5708 16.5472 65.0941 17.1341C68.3658 20.8038 68.3658 26.3003 68.3658 37.2934C68.3658 48.2865 68.3658 53.7829 65.0941 57.4527C64.5708 58.0397 63.994 58.5823 63.3703 59.0748C59.4715 62.1541 53.6314 62.1541 41.9512 62.1541H32.6284C20.9483 62.1541 15.1082 62.1541 11.2092 59.0748C10.5856 58.5823 10.0088 58.0397 9.48554 57.4527C6.21387 53.7829 6.21387 48.2865 6.21387 37.2934Z" stroke="#141B34" stroke-width="3.04418" stroke-linecap="round" stroke-linejoin="round"/>
<path d="M31.0752 49.7217H35.7366" stroke="#141B34" stroke-width="3.04418" stroke-miterlimit="10" stroke-linecap="round" stroke-linejoin="round"/>
<path d="M45.0586 49.7217H55.9352" stroke="#141B34" stroke-width="3.04418" stroke-miterlimit="10" stroke-linecap="round" stroke-linejoin="round"/>
<path d="M6.21387 27.9697H68.3658" stroke="#141B34" stroke-width="3.04418" stroke-linejoin="round"/>
</svg>
