<svg width="26" height="26" viewBox="0 0 26 26" fill="none" xmlns="http://www.w3.org/2000/svg">
<path d="M3.23633 7.55029H6.47205" stroke="#141B34" stroke-width="1.5" stroke-linecap="round" stroke-linejoin="round"/>
<path d="M3.23633 18.3354H9.70777" stroke="#141B34" stroke-width="1.5" stroke-linecap="round" stroke-linejoin="round"/>
<path d="M19.4131 18.3354H22.6488" stroke="#141B34" stroke-width="1.5" stroke-linecap="round" stroke-linejoin="round"/>
<path d="M16.1787 7.55029H22.6502" stroke="#141B34" stroke-width="1.5" stroke-linecap="round" stroke-linejoin="round"/>
<path d="M6.4707 7.5503C6.4707 6.5452 6.4707 6.04264 6.6349 5.64621C6.85384 5.11766 7.27379 4.69772 7.80234 4.47878C8.19877 4.31457 8.70132 4.31458 9.70642 4.31458C10.7115 4.31458 11.2141 4.31457 11.6105 4.47878C12.139 4.69772 12.559 5.11766 12.778 5.64621C12.9421 6.04264 12.9421 6.5452 12.9421 7.5503C12.9421 8.5554 12.9421 9.05795 12.778 9.45438C12.559 9.98293 12.139 10.4029 11.6105 10.6218C11.2141 10.786 10.7115 10.786 9.70642 10.786C8.70132 10.786 8.19877 10.786 7.80234 10.6218C7.27379 10.4029 6.85384 9.98293 6.6349 9.45438C6.4707 9.05795 6.4707 8.5554 6.4707 7.5503Z" stroke="#141B34" stroke-width="1.5"/>
<path d="M12.9424 18.3355C12.9424 17.3303 12.9424 16.8278 13.1065 16.4313C13.3255 15.9028 13.7455 15.4828 14.274 15.2639C14.6705 15.0997 15.173 15.0997 16.1781 15.0997C17.1832 15.0997 17.6857 15.0997 18.0822 15.2639C18.6107 15.4828 19.0307 15.9028 19.2497 16.4313C19.4138 16.8278 19.4138 17.3303 19.4138 18.3355C19.4138 19.3406 19.4138 19.8431 19.2497 20.2396C19.0307 20.7681 18.6107 21.1881 18.0822 21.407C17.6857 21.5712 17.1832 21.5712 16.1781 21.5712C15.173 21.5712 14.6705 21.5712 14.274 21.407C13.7455 21.1881 13.3255 20.7681 13.1065 20.2396C12.9424 19.8431 12.9424 19.3406 12.9424 18.3355Z" stroke="#141B34" stroke-width="1.5"/>
</svg>
