<svg width="75" height="75" viewBox="0 0 75 75" fill="none" xmlns="http://www.w3.org/2000/svg">
<path d="M6.21582 37.2924C6.21582 25.5729 6.21582 19.7132 9.85659 16.0724C13.4974 12.4316 19.3571 12.4316 31.0766 12.4316H43.507C55.2263 12.4316 61.0863 12.4316 64.7269 16.0724C68.3677 19.7132 68.3677 25.5729 68.3677 37.2924C68.3677 49.0118 68.3677 54.8718 64.7269 58.5123C61.0863 62.1532 55.2263 62.1532 43.507 62.1532H31.0766C19.3571 62.1532 13.4974 62.1532 9.85659 58.5123C6.21582 54.8718 6.21582 49.0118 6.21582 37.2924Z" stroke="#141B34" stroke-width="3.04418" stroke-linecap="round" stroke-linejoin="round"/>
<path d="M6.21582 37.291H68.3677" stroke="#141B34" stroke-width="3.04418" stroke-linecap="round" stroke-linejoin="round"/>
<path d="M31.0742 12.4316V62.1532" stroke="#141B34" stroke-width="3.04418" stroke-linecap="round" stroke-linejoin="round"/>
<path d="M21.7529 27.9688L40.3985 46.6143M21.7529 46.6143L40.3985 27.9688" stroke="#141B34" stroke-width="3.04418" stroke-linecap="round" stroke-linejoin="round"/>
</svg>
