<svg width="75" height="75" viewBox="0 0 75 75" fill="none" xmlns="http://www.w3.org/2000/svg">
<path d="M40.234 59.0451C39.9919 62.2198 39.3896 64.2966 37.8942 65.8193C35.3914 68.3679 31.3627 68.3679 23.3056 68.3679C15.2485 68.3679 11.2199 68.3679 8.71691 65.8193C6.21387 63.2708 6.21387 59.1688 6.21387 50.9653V36.0489C6.21387 27.8452 6.21387 23.7434 8.71691 21.1948C10.2387 19.6453 12.3245 19.0379 15.5367 18.7998" stroke="#141B34" stroke-width="3.04418" stroke-linecap="round"/>
<path d="M23.2822 59.0479H23.3098" stroke="#141B34" stroke-width="3.04418" stroke-linecap="round" stroke-linejoin="round"/>
<path d="M49.9631 6.21777H43.26C34.2458 6.21777 29.7388 6.21777 27.0635 9.02471C24.3882 11.8316 24.6694 16.2655 25.2316 25.1332L25.6227 31.3009C25.752 33.3388 25.8166 34.3578 26.0453 35.2078C26.9287 38.49 29.6296 40.991 33.0081 41.6554C33.8829 41.8272 34.9186 41.8272 36.9904 41.8272C39.8768 41.8272 39.8376 44.2114 39.8376 46.571C39.8376 48.4017 39.8376 49.3169 40.434 49.6317C41.0303 49.9461 41.8029 49.4384 43.3483 48.4228L52.5449 42.3798C53.1465 41.9842 53.6872 41.8272 54.3955 41.8272C58.1936 41.8272 60.0926 41.8272 61.6315 41.2561C66.9638 39.2762 67.407 34.3494 67.7149 29.4935L67.9915 25.1332C68.5537 16.2655 68.8349 11.8316 66.1596 9.02471C63.4842 6.21777 58.9773 6.21777 49.9631 6.21777Z" stroke="#141B34" stroke-width="3.04418" stroke-linejoin="round"/>
<path d="M42.9903 26.1927C35.506 20.8654 46.611 15.5381 46.611 15.5381C46.611 15.5381 57.7215 20.8654 50.2375 26.1927M42.9903 26.1927H50.2375M42.9903 26.1927L41.177 34.1835M50.2375 26.1927L52.7727 34.1835" stroke="#141B34" stroke-width="3.04418" stroke-linecap="round" stroke-linejoin="round"/>
</svg>
