<svg width="24" height="24" viewBox="0 0 24 24" fill="none" xmlns="http://www.w3.org/2000/svg">
<path d="M16.9767 19.5C19.4017 17.8876 21 15.1305 21 12C21 7.02944 16.9706 3 12 3C11.3126 3 10.6432 3.07706 10 3.22302M16.9767 19.5V16M16.9767 19.5H20.5M7 4.51555C4.58803 6.13007 3 8.87958 3 12C3 16.9706 7.02944 21 12 21C12.6874 21 13.3568 20.9229 14 20.777M7 4.51555V8M7 4.51555H3.5" stroke="#141B34" stroke-width="1.5" stroke-linecap="round" stroke-linejoin="round"/>
<path d="M8.25 14.2915C8.25 13.7063 8.25 13.4137 8.39044 13.2035C8.45124 13.1125 8.52937 13.0344 8.62036 12.9735C8.83055 12.8331 9.12314 12.8331 9.70833 12.8331C10.2935 12.8331 10.5861 12.8331 10.7963 12.9735C10.8873 13.0344 10.9654 13.1125 11.0262 13.2035C11.1667 13.4137 11.1667 13.7063 11.1667 14.2915C11.1667 14.8766 11.1667 15.1693 11.0262 15.3794C10.9654 15.4704 10.8873 15.5485 10.7963 15.6093C10.5861 15.7498 10.2935 15.7498 9.70833 15.7498C9.12314 15.7498 8.83055 15.7498 8.62036 15.6093C8.52937 15.5485 8.45124 15.4704 8.39044 15.3794C8.25 15.1693 8.25 14.8766 8.25 14.2915Z" stroke="#141B34" stroke-width="0.625" stroke-linejoin="round"/>
<path d="M12.9166 14.6996C12.4849 14.2679 12.269 14.052 12.2211 13.7924C12.2023 13.6906 12.2023 13.5862 12.2211 13.4844C12.269 13.2247 12.4849 13.0089 12.9166 12.5771C13.3484 12.1454 13.5642 11.9295 13.8239 11.8816C13.9257 11.8629 14.0301 11.8629 14.1319 11.8816C14.3915 11.9295 14.6074 12.1454 15.0391 12.5771C15.4709 13.0089 15.6868 13.2247 15.7346 13.4844C15.7534 13.5862 15.7534 13.6906 15.7346 13.7924C15.6868 14.052 15.4709 14.2679 15.0391 14.6996C14.6074 15.1314 14.3915 15.3472 14.1319 15.3951C14.0301 15.4139 13.9257 15.4139 13.8239 15.3951C13.5642 15.3472 13.3484 15.1314 12.9166 14.6996Z" stroke="#141B34" stroke-width="0.625" stroke-linejoin="round"/>
<path d="M10.182 9.40641C10.3878 8.84117 10.4906 8.55855 10.7009 8.40576C10.7892 8.34157 10.8891 8.29499 10.9951 8.26858C11.2473 8.20572 11.5299 8.30858 12.0951 8.51431C12.6604 8.72004 12.943 8.8229 13.0958 9.03318C13.16 9.12152 13.2066 9.2214 13.233 9.32736C13.2958 9.57956 13.193 9.86218 12.9872 10.4274C12.7815 10.9927 12.6786 11.2753 12.4684 11.4281C12.38 11.4923 12.2801 11.5388 12.1742 11.5653C11.922 11.6281 11.6394 11.5253 11.0741 11.3195C10.5089 11.1138 10.2263 11.0109 10.0735 10.8007C10.0093 10.7123 9.96272 10.6124 9.93631 10.5065C9.87344 10.2543 9.97631 9.97164 10.182 9.40641Z" stroke="#141B34" stroke-width="0.625" stroke-linejoin="round"/>
</svg>
