<svg width="155" height="155" viewBox="0 0 155 155" fill="none" xmlns="http://www.w3.org/2000/svg">
<g clip-path="url(#clip0_322_14590)">
<path d="M152.392 86.7354H74.6723C70.5077 86.4145 66.3843 87.7465 63.1945 90.4431C60.0047 93.1398 58.0052 96.9841 57.6288 101.144L57.6223 101.202C57.8098 103.29 58.4068 105.32 59.3792 107.176C60.3516 109.033 61.6804 110.68 63.2896 112.023C64.8988 113.366 66.7569 114.378 68.7577 115.003C70.7584 115.627 72.8626 115.851 74.95 115.662L74.8919 115.669H152.392C152.88 115.714 153.372 115.661 153.839 115.514C154.306 115.366 154.739 115.127 155.113 114.81C155.486 114.493 155.793 114.105 156.014 113.668C156.236 113.231 156.368 112.754 156.402 112.265V90.1519C156.276 89.2068 155.811 88.3396 155.093 87.7114C154.376 87.0831 153.455 86.7364 152.502 86.7354H152.385H152.392ZM74.6723 110.231C72.8457 110.231 71.0601 109.689 69.5414 108.674C68.0226 107.66 66.8389 106.217 66.1399 104.53C65.4409 102.842 65.258 100.985 65.6143 99.1937C65.9707 97.4022 66.8503 95.7566 68.1419 94.465C69.4335 93.1734 71.0791 92.2938 72.8706 91.9375C74.662 91.5811 76.519 91.764 78.2065 92.463C79.8941 93.162 81.3365 94.3457 82.3513 95.8645C83.3661 97.3833 83.9077 99.1688 83.9077 100.995V101.021C83.9077 106.11 79.7808 110.231 74.6981 110.231H74.6723ZM21.2812 0V41.3592H30.1163V23.6892C31.0075 23.9088 32.0408 24.0508 33.1 24.0896H33.1258C36.3188 24.0828 39.3792 22.8118 41.6375 20.5546C43.8959 18.2974 45.1686 15.2378 45.1771 12.0448C45.1617 10.9958 45.0185 9.95267 44.7508 8.93833L44.7702 9.03521H93.156C92.9219 10.0137 92.7877 11.0134 92.7556 12.019V12.0448C92.7625 15.2378 94.0334 18.2981 96.2906 20.5565C98.5478 22.8149 101.607 24.0875 104.8 24.096C105.885 24.0573 106.925 23.9152 107.92 23.6698L107.816 23.6892V41.3592H116.865V0H21.2812ZM120.669 36.3346H131.912C131.068 33.8891 129.591 31.7106 127.632 30.0205C125.673 28.3304 123.302 27.1888 120.759 26.7117L120.669 26.6987V36.3346Z" fill="#4491BE"/>
<path d="M152.392 86.7354H74.6723C70.5077 86.4145 66.3843 87.7465 63.1945 90.4431C60.0047 93.1398 58.0052 96.9841 57.6288 101.144L57.6223 101.202C57.8098 103.29 58.4068 105.32 59.3792 107.176C60.3516 109.033 61.6804 110.68 63.2896 112.023C64.8988 113.366 66.7569 114.378 68.7577 115.003C70.7584 115.627 72.8626 115.851 74.95 115.662L74.8919 115.669H152.392C152.88 115.714 153.372 115.661 153.839 115.514C154.306 115.366 154.739 115.127 155.113 114.81C155.486 114.493 155.793 114.105 156.014 113.668C156.236 113.231 156.368 112.754 156.402 112.265V90.1519C156.276 89.2068 155.811 88.3396 155.093 87.7114C154.376 87.0831 153.455 86.7364 152.502 86.7354H152.385H152.392ZM74.6723 110.231C72.8457 110.231 71.0601 109.689 69.5414 108.674C68.0226 107.66 66.8389 106.217 66.1399 104.53C65.4409 102.842 65.258 100.985 65.6143 99.1937C65.9707 97.4022 66.8503 95.7566 68.1419 94.465C69.4335 93.1734 71.0791 92.2938 72.8706 91.9375C74.662 91.5811 76.519 91.764 78.2065 92.463C79.8941 93.162 81.3365 94.3457 82.3513 95.8645C83.3661 97.3833 83.9077 99.1688 83.9077 100.995V101.021C83.9077 106.11 79.7808 110.231 74.6981 110.231H74.6723ZM21.2812 0V41.3592H30.1163V23.6892C31.0075 23.9088 32.0408 24.0508 33.1 24.0896H33.1258C36.3188 24.0828 39.3792 22.8118 41.6375 20.5546C43.8959 18.2974 45.1686 15.2378 45.1771 12.0448C45.1617 10.9958 45.0185 9.95267 44.7508 8.93833L44.7702 9.03521H93.156C92.9219 10.0137 92.7877 11.0134 92.7556 12.019V12.0448C92.7625 15.2378 94.0334 18.2981 96.2906 20.5565C98.5478 22.8149 101.607 24.0875 104.8 24.096C105.885 24.0573 106.925 23.9152 107.92 23.6698L107.816 23.6892V41.3592H116.865V0H21.2812ZM120.669 36.3346H131.912C131.068 33.8891 129.591 31.7106 127.632 30.0205C125.673 28.3304 123.302 27.1888 120.759 26.7117L120.669 26.6987V36.3346Z" fill="black" fill-opacity="0.2"/>
<path d="M74.0835 81.9175H151.183V58.4286C150.853 54.9442 149.167 51.729 146.489 49.4759C143.811 47.2229 140.354 46.1124 136.865 46.3838H136.91H14.4602C14.3549 46.2714 14.2129 46.2004 14.0598 46.1836C13.2091 45.7869 12.4809 45.1687 11.9514 44.3937C11.4219 43.6188 11.1106 42.7156 11.0502 41.779V41.7661C11.1566 40.6056 11.6131 39.5049 12.3594 38.6098C13.1056 37.7148 14.1063 37.0677 15.2287 36.7544L15.2675 36.7479V26.5115C6.82646 26.9119 0 38.9567 0 54.0175V142.962C0.333193 146.442 2.0183 149.652 4.69321 151.903C7.36811 154.154 10.8193 155.266 14.3052 155H14.26H136.71C140.181 155.256 143.615 154.145 146.278 151.904C148.941 149.664 150.622 146.471 150.964 143.007L150.97 142.955V119.466H74.2967C61.8515 119.466 51.8088 111.032 51.8088 100.795C51.8088 90.3586 61.845 81.924 74.09 81.924L74.0835 81.9175Z" fill="#4491BE"/>
<path d="M74.0835 81.9175H151.183V58.4286C150.853 54.9442 149.167 51.729 146.489 49.4759C143.811 47.2229 140.354 46.1124 136.865 46.3838H136.91H14.4602C14.3549 46.2714 14.2129 46.2004 14.0598 46.1836C13.2091 45.7869 12.4809 45.1687 11.9514 44.3937C11.4219 43.6188 11.1106 42.7156 11.0502 41.779V41.7661C11.1566 40.6056 11.6131 39.5049 12.3594 38.6098C13.1056 37.7148 14.1063 37.0677 15.2287 36.7544L15.2675 36.7479V26.5115C6.82646 26.9119 0 38.9567 0 54.0175V142.962C0.333193 146.442 2.0183 149.652 4.69321 151.903C7.36811 154.154 10.8193 155.266 14.3052 155H14.26H136.71C140.181 155.256 143.615 154.145 146.278 151.904C148.941 149.664 150.622 146.471 150.964 143.007L150.97 142.955V119.466H74.2967C61.8515 119.466 51.8088 111.032 51.8088 100.795C51.8088 90.3586 61.845 81.924 74.09 81.924L74.0835 81.9175Z" fill="black" fill-opacity="0.2"/>
</g>
<defs>
<clipPath id="clip0_322_14590">
<rect width="155" height="155" fill="white"/>
</clipPath>
</defs>
</svg>
